<?xml version="1.0" encoding="utf-8"?>
<svg
  width="48"
  height="48"
  viewBox="0 0 48 48"
  xmlns="http://www.w3.org/2000/svg"
>
  <defs>
    <linearGradient id="grad" x1="0%" y1="100%" x2="100%" y2="0%">
      <stop offset="0%" stop-color="#fda085" />
      <stop offset="100%" stop-color="#f6d365" />
    </linearGradient>

    <mask id="icon-mask">
      <g fill="white">
        <!-- same paths as before -->
        <path d="M4.083.183a.5.5 0 00-.65.65l.393.981a.5.5 0 010 .371l-.393.982a.5.5 0 00.65.65l.981-.393a.5.5 0 01.372 0l.98.392a.5.5 0 00.65-.65l-.392-.98a.5.5 0 010-.372l.393-.981a.5.5 0 00-.65-.65l-.981.392a.5.5 0 01-.372 0l-.98-.392z" />
        <path fill-rule="evenodd" clip-rule="evenodd" d="M11.414 4.104a2 2 0 00-2.828 0L.808 11.882a2 2 0 002.828 2.828l7.778-7.778a2 2 0 000-2.828zm-1.768 1.06a.5.5 0 01.708.707l-.884.884-.707-.707.883-.884zM7.702 7.11l.707.707-5.834 5.834a.5.5 0 11-.707-.707l5.834-5.834z" />
        <path d="M10.572 11.21a.5.5 0 010-.92l1.22-.522a.5.5 0 00.262-.262l.522-1.22a.5.5 0 01.92 0l.521 1.22a.5.5 0 00.263.262l1.219.522a.5.5 0 010 .92l-1.219.522a.5.5 0 00-.263.263l-.522 1.218a.5.5 0 01-.919 0l-.522-1.218a.5.5 0 00-.263-.263l-1.219-.522zM12.833.183a.5.5 0 00-.65.65l.293.731a.5.5 0 010 .371l-.293.732a.5.5 0 00.65.65l.731-.293a.5.5 0 01.372 0l.73.292a.5.5 0 00.65-.65l-.292-.73a.5.5 0 010-.372l.293-.731a.5.5 0 00-.65-.65l-.731.292a.5.5 0 01-.372 0l-.73-.292z" />
        <circle cx="3" cy="13" r="1.5" />
        <circle cx="4" cy="12" r="1.5" />
        <circle cx="5" cy="10" r="1.5" />
        <circle cx="6" cy="9" r="1.5" />
        <circle cx="7" cy="8" r="1.5" />
        <circle cx="10" cy="6" r="1.5" />
      </g>
    </mask>
  </defs>

  <!-- background fills full 48x48 with rounded corners -->
  <rect width="48" height="48" fill="#242424" rx="12" ry="12" />

  <!-- scaled + translated group to simulate padding (8px left/right, 10px top) -->
  <g transform="translate(8,10) scale(2)">
    <!-- 16x16 icon masked with gradient -->
    <rect width="16" height="16" fill="url(#grad)" mask="url(#icon-mask)" />
  </g>
</svg>

